<svg width="15" height="20" viewBox="0 0 15 20" fill="none" xmlns="http://www.w3.org/2000/svg">
<path d="M7.61009 0.6875C3.5448 0.6875 0.237061 3.78419 0.237061 7.59049C0.237061 8.58332 0.454119 9.53125 0.881883 10.4082C2.72534 14.1847 6.25977 18.172 7.29936 19.3039C7.37725 19.3886 7.4908 19.4373 7.61029 19.4373C7.72979 19.4373 7.84334 19.3886 7.92123 19.3039C8.9604 18.1722 12.4948 14.1851 14.3389 10.4082C14.7669 9.53125 14.9837 8.58332 14.9837 7.59049C14.9833 3.78419 11.6756 0.6875 7.61009 0.6875ZM7.61009 11.1759C5.49833 11.1759 3.7801 9.56733 3.7801 7.5903C3.7801 5.61308 5.49833 4.00448 7.61009 4.00448C9.72185 4.00448 11.4401 5.61308 11.4401 7.5903C11.4403 9.56733 9.72206 11.1759 7.61009 11.1759Z" fill="#201311"/>
</svg>
