<svg width="20" height="20" viewBox="0 0 20 20" fill="none" xmlns="http://www.w3.org/2000/svg">
<path d="M4.09691 6.88483C4.89614 9.66913 6.36766 12.2142 8.3819 14.296L9.52843 13.672C9.74257 13.5555 9.95392 13.4333 10.1703 13.3212C10.7441 13.0246 11.3659 13.1913 11.6927 13.7462C12.2191 14.6384 12.7381 15.5372 13.2496 16.4424C13.5842 17.0374 13.3773 17.725 12.7684 18.0211C11.7672 18.5104 10.761 18.9883 9.74982 19.4548C9.65279 19.5 9.50501 19.4794 9.39459 19.4448C8.53079 19.1727 7.78242 18.692 7.0848 18.1276C5.64606 16.9627 4.48894 15.5457 3.46788 14.0138C2.14346 12.0258 1.08838 9.90786 0.440949 7.60086C0.15822 6.59095 -0.0313812 5.56432 0.00430843 4.51147C0.0182497 4.11721 0.0952054 3.72463 0.161008 3.33427C0.183136 3.23502 0.240617 3.14721 0.322727 3.08723C1.2198 2.45894 2.12022 1.83753 3.02399 1.223C3.61621 0.819821 4.31718 0.975406 4.67798 1.59217C5.19176 2.46991 5.69997 3.35081 6.2026 4.23488C6.54332 4.83379 6.38049 5.46171 5.79217 5.82585C5.25403 6.16044 4.71033 6.48723 4.1694 6.81792C4.15825 6.82517 4.14933 6.83688 4.09691 6.88483Z" fill="#201311"/>
<path d="M8.56752 13.0854C7.09987 11.3911 5.96849 9.43261 5.23389 7.3148L6.68991 6.40695C6.83267 6.50342 6.98826 6.60714 7.14273 6.71254L11.643 9.79691C11.9737 10.0239 12.0997 10.0239 12.4371 9.79245L19.6765 4.82935C19.7613 4.7708 19.8482 4.71503 19.967 4.63696C19.9829 4.72589 19.9939 4.81562 19.9999 4.90575C19.9999 7.95796 19.9999 11.0102 19.9999 14.0624C19.9999 14.5866 19.6464 14.9429 19.1183 14.944C17.3065 14.9485 15.4935 14.944 13.6829 14.9485C13.5507 14.9485 13.4827 14.8927 13.4219 14.7879C13.1509 14.3089 12.8743 13.8332 12.5982 13.3575C11.9396 12.2227 10.7546 11.8914 9.60754 12.521L8.56752 13.0854Z" fill="#201311"/>
<path d="M7.21309 5.58268C7.40827 5.06128 7.38429 4.54992 7.19971 4.02795H19.0353L19.0604 4.07145L12.034 8.88844L7.21309 5.58268Z" fill="#201311"/>
</svg>
