<svg width="20" height="21" viewBox="0 0 20 21" fill="none" xmlns="http://www.w3.org/2000/svg">
<g clip-path="url(#clip0_328_231)">
<path d="M12.043 20.856C11.9453 20.8601 11.8828 20.8684 11.8203 20.8684C10.4844 20.8684 9.15234 20.8642 7.81641 20.8725C7.62891 20.8725 7.57813 20.8191 7.57813 20.6223C7.58203 17.3574 7.58203 14.0885 7.58203 10.8236C7.58203 10.7375 7.58203 10.6514 7.58203 10.5406C6.85547 10.5406 6.14844 10.5406 5.42969 10.5406C5.42969 9.37582 5.42969 8.23148 5.42969 7.05433C5.50391 7.05433 5.57422 7.05433 5.64062 7.05433C6.22656 7.05433 6.8125 7.05023 7.39844 7.05843C7.54688 7.05843 7.58594 7.01332 7.58594 6.86156C7.57813 5.94691 7.57813 5.02816 7.58594 4.11351C7.58984 3.47367 7.6875 2.85023 7.96875 2.27191C8.37109 1.4557 9.00781 0.926597 9.8125 0.598472C10.4688 0.327769 11.1602 0.229332 11.8555 0.217027C12.9883 0.200621 14.1211 0.208824 15.2539 0.204722C15.3594 0.204722 15.4453 0.200621 15.4453 0.35648C15.4414 1.48441 15.4414 2.61234 15.4414 3.74027C15.4414 3.75257 15.4375 3.76488 15.4219 3.8182C15.3555 3.8182 15.2813 3.8182 15.207 3.8182C14.5039 3.8182 13.8008 3.8141 13.0977 3.8182C12.6914 3.8182 12.3633 3.99046 12.1563 4.36371C12.0938 4.47445 12.0547 4.618 12.0547 4.74925C12.043 5.44652 12.0547 6.14378 12.0469 6.84105C12.0469 7.00511 12.0938 7.05023 12.2461 7.05023C13.2227 7.04203 14.1992 7.04613 15.1758 7.04613C15.2539 7.04613 15.3281 7.04613 15.4609 7.04613C15.3242 8.21917 15.1914 9.36761 15.0547 10.5283C14.0391 10.5283 13.0508 10.5283 12.043 10.5283C12.043 13.9777 12.043 17.4066 12.043 20.856Z" fill="#201311"/>
</g>
<defs>
<clipPath id="clip0_328_231">
<rect width="20" height="21" fill="white"/>
</clipPath>
</defs>
</svg>
