<svg width="76" height="76" viewBox="0 0 76 76" fill="none" xmlns="http://www.w3.org/2000/svg">
<g clip-path="url(#clip0_328_219)">
<path d="M36.691 0.0250244C34.2835 0.105431 31.8892 0.415418 29.5407 0.950768V32.3582C29.5412 32.587 29.4813 32.8119 29.367 33.0103C29.2528 33.2086 29.0883 33.3732 28.89 33.4877L7.43907 45.9012C4.12848 35.2426 7.93602 20.4736 19.7912 12.1383V27.4614L17.1921 28.9483V17.7464C14.1271 20.8993 11.8182 24.7068 10.4396 28.8819C9.061 33.0569 8.64871 37.4904 9.23381 41.8479L26.913 31.6076V1.64061C3.92827 8.63194 -6.69353 34.9388 4.45382 55.8771L36.691 37.2585V0.0250244Z" fill="#201311"/>
<path d="M5.76587 58.1146C7.04165 60.1648 8.50929 62.0892 10.149 63.862L37.3202 48.1566C37.518 48.0424 37.7425 47.9823 37.9709 47.9823C38.1993 47.9823 38.4237 48.0424 38.6216 48.1566L60.1011 60.5487C52.5325 68.7446 37.8422 72.83 24.7071 66.7286L37.9959 59.0689L40.5808 60.5773L30.8849 66.1782C35.1456 67.2567 39.5958 67.3529 43.8992 66.4593C48.2025 65.5658 52.2463 63.706 55.7251 61.0205L37.9959 50.7837L12.0546 65.7707C29.605 82.1946 57.695 78.2629 70.2331 58.1217L37.9959 39.5032L5.76587 58.1146Z" fill="#201311"/>
<path d="M71.5132 55.8771C72.6491 53.7463 73.5816 51.5132 74.2982 49.2074L47.1056 33.5019C46.9085 33.3874 46.7451 33.2231 46.6315 33.0255C46.5179 32.8279 46.4583 32.6039 46.4585 32.376V7.5668C57.3377 10.0295 68.2169 20.7131 69.5075 35.1497L56.2294 27.4721V24.4804L65.9252 30.0813C64.7294 25.852 62.5886 21.9493 59.6642 18.6677C56.7398 15.3862 53.1082 12.8113 49.0433 11.1375V31.6147L74.999 46.5839C80.4439 23.1651 62.9936 0.793495 39.2903 0V37.2514L71.5132 55.8771Z" fill="#201311"/>
</g>
<defs>
<clipPath id="clip0_328_219">
<rect width="76" height="76" fill="white"/>
</clipPath>
</defs>
</svg>
