<svg width="30" height="30" viewBox="0 0 30 30" fill="none" xmlns="http://www.w3.org/2000/svg">
<g clip-path="url(#clip0_333_704)">
<path d="M14.9995 0C8.91004 0 3.95532 4.95471 3.95532 11.0448C3.95532 12.6333 4.28046 14.15 4.92121 15.5531C7.68256 21.5956 12.9768 27.9752 14.5341 29.7863C14.6507 29.9217 14.8208 29.9997 14.9998 29.9997C15.1788 29.9997 15.3489 29.9217 15.4656 29.7863C17.0222 27.9755 22.3164 21.5962 25.0787 15.5531C25.7198 14.15 26.0446 12.6333 26.0446 11.0448C26.044 4.95471 21.0893 0 14.9995 0ZM14.9995 16.7815C11.8363 16.7815 9.2625 14.2077 9.2625 11.0445C9.2625 7.88094 11.8363 5.30718 14.9995 5.30718C18.1627 5.30718 20.7365 7.88094 20.7365 11.0445C20.7368 14.2077 18.1631 16.7815 14.9995 16.7815Z" fill="#201311"/>
</g>
<defs>
<clipPath id="clip0_333_704">
<rect width="30" height="30" fill="white"/>
</clipPath>
</defs>
</svg>
