<svg width="20" height="20" viewBox="0 0 20 20" fill="none" xmlns="http://www.w3.org/2000/svg">
<g clip-path="url(#clip0_328_227)">
<path d="M9.99837 13.3335C11.8393 13.3335 13.3317 11.8412 13.3317 10.0002C13.3317 8.15925 11.8393 6.66687 9.99837 6.66687C8.15742 6.66687 6.66504 8.15925 6.66504 10.0002C6.66504 11.8412 8.15742 13.3335 9.99837 13.3335Z" fill="#201311"/>
<path d="M14.1658 0H5.8325C2.61667 0 0 2.6175 0 5.83417V14.1675C0 17.3833 2.6175 20 5.83417 20H14.1675C17.3833 20 20 17.3825 20 14.1658V5.8325C20 2.61667 17.3825 0 14.1658 0ZM10 15C7.2425 15 5 12.7575 5 10C5 7.2425 7.2425 5 10 5C12.7575 5 15 7.2425 15 10C15 12.7575 12.7575 15 10 15ZM15.8333 5C15.3733 5 15 4.62667 15 4.16667C15 3.70667 15.3733 3.33333 15.8333 3.33333C16.2933 3.33333 16.6667 3.70667 16.6667 4.16667C16.6667 4.62667 16.2933 5 15.8333 5Z" fill="#201311"/>
</g>
<defs>
<clipPath id="clip0_328_227">
<rect width="20" height="20" fill="white"/>
</clipPath>
</defs>
</svg>
