<svg width="20" height="20" viewBox="0 0 20 20" fill="none" xmlns="http://www.w3.org/2000/svg">
<g clip-path="url(#clip0_328_234)">
<path d="M10 0.625C7.6875 0.625 5.78125 2.5 5.78125 4.84375C5.78125 7.15625 7.65625 9.0625 10 9.0625C12.3438 9.0625 14.2188 7.1875 14.2188 4.84375C14.2188 2.5 12.3125 0.625 10 0.625ZM10 6.25C9.21875 6.25 8.59375 5.625 8.59375 4.84375C8.59375 4.0625 9.21875 3.4375 10 3.4375C10.7812 3.4375 11.4062 4.0625 11.4062 4.84375C11.4062 5.625 10.7812 6.25 10 6.25Z" fill="#201311"/>
<path d="M15.1875 11.9063C14.125 12.5 12.9688 12.9063 11.8125 13.0938L15.0938 17.125C15.4688 17.5938 15.5625 18.25 15.2188 18.75C14.6875 19.5625 13.5625 19.5938 13 18.875L9.96878 15.1563L6.96878 18.875C6.68753 19.2188 6.31253 19.375 5.90628 19.375C5.50003 19.375 5.09378 19.1875 4.81253 18.8125C4.46878 18.3438 4.50003 17.5625 4.87503 17.0938L8.12503 13.0313C6.96878 12.8125 5.81253 12.4375 4.78128 11.8438C4.12503 11.4688 3.90628 10.6563 4.28128 9.96878C4.65628 9.31253 5.50003 9.09378 6.15628 9.46878C8.53128 10.8125 11.5 10.8125 13.9063 9.50003C14.5625 9.12503 15.4063 9.37503 15.75 10.0313C16.0938 10.7188 15.8438 11.5313 15.1875 11.9063Z" fill="#201311"/>
</g>
<defs>
<clipPath id="clip0_328_234">
<rect width="20" height="20" fill="white"/>
</clipPath>
</defs>
</svg>
