<svg width="30" height="30" viewBox="0 0 30 30" fill="none" xmlns="http://www.w3.org/2000/svg">
<path d="M8.30303 30C7.84062 29.8688 7.398 29.7025 7.05723 29.3405C6.61754 28.8773 6.42774 28.3204 6.42847 27.6887C6.42847 26.223 6.42847 24.7586 6.42847 23.2954C6.42847 16.3248 6.42847 9.35413 6.42847 2.3835C6.42847 1.4235 6.78242 0.662826 7.67061 0.240719C7.98847 0.0938778 8.33397 0.0164339 8.6841 0.0135431C12.8431 -0.00160195 17.0022 -0.00404459 21.1612 0.00621496C22.5103 0.00621496 23.4175 0.964017 23.4175 2.35125C23.4175 9.06735 23.4175 15.7849 23.4175 22.5039C23.4175 24.1161 23.3846 25.7284 23.4285 27.3362C23.4615 28.5365 23.0621 29.6131 21.5437 29.9993L8.30303 30ZM21.7584 23.875V4.13642C21.7584 4.02466 21.714 3.91748 21.635 3.83846C21.556 3.75944 21.4488 3.71504 21.3371 3.71504H8.5031C8.39147 3.71523 8.28448 3.75972 8.20561 3.83872C8.12675 3.91772 8.08245 4.02479 8.08246 4.13642V23.875C8.08245 23.9867 8.12675 24.0937 8.20561 24.1727C8.28448 24.2517 8.39147 24.2962 8.5031 24.2964H21.3371C21.4488 24.2964 21.556 24.252 21.635 24.173C21.714 24.094 21.7584 23.9868 21.7584 23.875ZM17.1907 26.0435H12.6567C12.6077 26.0434 12.5591 26.053 12.5138 26.0717C12.4684 26.0904 12.4272 26.1178 12.3925 26.1525C12.3578 26.1871 12.3303 26.2283 12.3115 26.2736C12.2927 26.3189 12.283 26.3674 12.283 26.4165V27.2724C12.283 27.3715 12.3224 27.4666 12.3925 27.5367C12.4626 27.6068 12.5576 27.6462 12.6567 27.6462H17.1915C17.2405 27.6462 17.2891 27.6365 17.3344 27.6177C17.3797 27.5989 17.4208 27.5714 17.4555 27.5367C17.4901 27.5019 17.5176 27.4607 17.5363 27.4154C17.555 27.3701 17.5646 27.3215 17.5645 27.2724V26.4165C17.5645 26.3674 17.5548 26.3189 17.536 26.2736C17.5172 26.2283 17.4897 26.1871 17.455 26.1525C17.4203 26.1178 17.379 26.0904 17.3337 26.0717C17.2884 26.053 17.2398 26.0434 17.1907 26.0435ZM17.53 1.60084H12.3211C12.2402 1.60084 12.1626 1.63294 12.1053 1.69009C12.048 1.74724 12.0157 1.82478 12.0155 1.9057C12.0155 1.98674 12.0477 2.06447 12.105 2.12178C12.1623 2.17909 12.2401 2.21128 12.3211 2.21128H17.53C17.6111 2.21128 17.6888 2.17909 17.7461 2.12178C17.8034 2.06447 17.8356 1.98674 17.8356 1.9057C17.8354 1.82478 17.8031 1.74724 17.7459 1.69009C17.6886 1.63294 17.611 1.60084 17.53 1.60084ZM19.7974 2.48023C19.8701 2.48005 19.942 2.46542 20.009 2.4372C20.076 2.40898 20.1368 2.36773 20.1877 2.31585C20.2386 2.26396 20.2787 2.20248 20.3057 2.13496C20.3327 2.06745 20.346 1.99525 20.3448 1.92255C20.3393 1.78075 20.2804 1.64629 20.1797 1.54622C20.0791 1.44615 19.9443 1.3879 19.8025 1.38319C19.7298 1.38232 19.6577 1.39586 19.5902 1.42304C19.5228 1.45022 19.4614 1.49048 19.4096 1.54152C19.3578 1.59256 19.3167 1.65335 19.2885 1.72038C19.2604 1.78742 19.2458 1.85937 19.2456 1.93208C19.2448 2.00443 19.2585 2.0762 19.2861 2.14311C19.3136 2.21001 19.3544 2.27069 19.4059 2.32151C19.4574 2.37233 19.5186 2.41225 19.5858 2.43889C19.6531 2.46553 19.7251 2.47834 19.7974 2.47657V2.48023Z" fill="#201311"/>
</svg>
