<svg width="20" height="20" viewBox="0 0 20 20" fill="none" xmlns="http://www.w3.org/2000/svg">
<g clip-path="url(#clip0_328_273)">
<path d="M9.37517 0H10.6251C10.6948 0.0119781 10.7641 0.0270809 10.8334 0.0359343C11.175 0.0812426 11.5203 0.105719 11.8578 0.17238C14.3606 0.667646 16.4094 1.91857 17.9509 3.94963C19.6789 6.22546 20.307 8.80335 19.8617 11.6218C19.5065 13.8695 18.4738 15.7834 16.7969 17.3197C14.4882 19.4352 11.7531 20.2919 8.64972 19.9028C6.65459 19.6523 4.89642 18.8316 3.38979 17.4953C1.65453 15.9522 0.568697 14.0352 0.156236 11.7437C0.0900958 11.3734 0.0520785 10.9985 0 10.6256V9.37569C0.0296847 9.13144 0.055203 8.88668 0.0900956 8.64295C0.402567 6.46294 1.32071 4.5751 2.86432 3.00389C4.3621 1.47955 6.16714 0.522348 8.27631 0.155194C8.64139 0.090096 9.00906 0.0505161 9.37517 0ZM10.711 6.9004C10.711 6.0609 10.711 5.22191 10.711 4.38241C10.7146 4.27875 10.7034 4.1751 10.6777 4.07462C10.6266 3.91255 10.519 3.77422 10.3745 3.68484C10.2299 3.59546 10.0581 3.56097 9.89028 3.58767C9.72246 3.61437 9.56982 3.70047 9.46017 3.83028C9.35051 3.9601 9.29115 4.12499 9.29289 4.29491C9.28976 6.19474 9.28976 8.09439 9.29289 9.99386C9.29289 10.249 9.40798 10.4397 9.60171 10.5949C10.7651 11.5246 11.9282 12.4539 13.091 13.3826C13.1976 13.4671 13.3224 13.5256 13.4555 13.5534C13.61 13.5848 13.7705 13.5618 13.9099 13.4882C14.0492 13.4146 14.1588 13.295 14.22 13.1498C14.3575 12.8446 14.2815 12.515 14.0044 12.2916C12.9556 11.4479 11.9043 10.607 10.8506 9.76889C10.8036 9.73616 10.7658 9.69192 10.7408 9.6404C10.7158 9.58888 10.7045 9.5318 10.7079 9.47464C10.7141 8.61535 10.711 7.75657 10.711 6.9004Z" fill="#201311"/>
</g>
<defs>
<clipPath id="clip0_328_273">
<rect width="20" height="19.9939" fill="white"/>
</clipPath>
</defs>
</svg>
