<svg width="20" height="20" viewBox="0 0 20 20" fill="none" xmlns="http://www.w3.org/2000/svg">
<mask id="mask0_328_239" style="mask-type:luminance" maskUnits="userSpaceOnUse" x="0" y="0" width="20" height="20">
<path d="M20 0H0V20H20V0Z" fill="white"/>
</mask>
<g mask="url(#mask0_328_239)">
<path d="M0.675313 3.9729C1.37466 3.9729 2.44034 3.9729 3.03978 3.9729C3.3395 3.9729 3.57262 4.17272 3.67252 4.43913C3.97225 5.305 4.63829 7.20323 5.40425 8.50202C6.43662 10.2004 7.10267 10.8331 7.5356 10.7665C7.96853 10.6666 7.83532 9.53439 7.83532 8.63523C7.83532 7.73607 7.93523 6.20416 7.5023 5.50481L6.83625 4.53904C6.66974 4.30593 6.83625 4.0062 7.10267 4.0062H10.8991C11.2655 4.0062 11.5652 4.30593 11.5652 4.67225V9.50109C11.5652 9.50109 11.7317 10.3669 12.6642 9.46779C13.5966 8.56863 14.5957 6.90351 15.4283 5.20509L15.7613 4.40583C15.8612 4.17272 16.0943 4.0062 16.3607 4.0062H18.8251C19.2913 4.0062 19.6244 4.47244 19.4578 4.90537L19.1914 5.60472C19.1914 5.60472 18.2923 7.40304 17.3598 8.66853C16.4273 9.96732 16.2275 10.267 16.3607 10.6C16.4939 10.9331 18.8917 13.1643 19.4911 14.23C19.6577 14.5297 19.7909 14.7961 19.9241 15.0292C20.1572 15.4622 19.8242 16.0283 19.3246 16.0283H16.5272C16.2941 16.0283 16.061 15.8951 15.9611 15.6953L15.6947 15.2624C15.6947 15.2624 13.9963 13.2642 12.9639 12.6315C11.8982 12.032 11.9315 12.8979 11.9315 12.8979V14.6629C11.9315 15.3956 11.3321 15.995 10.5994 15.995H9.93337C9.93337 15.995 6.27011 15.995 3.3395 11.6324C1.04164 8.2356 0.275685 6.03765 0.00926567 4.77216C-0.057339 4.37253 0.242382 3.9729 0.675313 3.9729Z" fill="#201311"/>
</g>
</svg>
