<svg width="35" height="21" fill="none" xmlns="http://www.w3.org/2000/svg"><path d="M0 12.503c.265-.623.738-.837 1.408-.83 2.538.023 5.077.008 7.616.01.639 0 1.117.394 1.175.956.071.695-.414 1.228-1.139 1.23-1.923.005-3.848 0-5.772 0-.626 0-1.253-.027-1.878.008-.673.038-1.142-.209-1.41-.829v-.545zM5.756 1.474c.035-.215.052-.372.087-.526.132-.589.525-.92 1.133-.942.365-.014.73 0 1.095 0h13.947a1.91 1.91 0 01.698.116c.489.2.713.71.59 1.282a18322.03 18322.03 0 01-3.237 15.085c-.16.746-.509 1.019-1.263 1.023h-1.335c.168-1.583-.22-2.965-1.262-4.117-1.186-1.314-2.688-1.868-4.453-1.664-.205.024-.31-.014-.435-.198-.233-.344-.528-.644-.82-.989.703-.496 1.167-1.2 1.17-2.132.004-.932-.444-1.649-1.224-2.194.134-.113.256-.21.37-.314A2.533 2.533 0 009.21 1.482c-1.014-.022-2.029-.008-3.042-.01l-.412.002zM33.667 17.19c.074-3.457-2.789-5.694-5.549-5.503a5.162 5.162 0 00-4.742 5.802c-.34 0-.683.043-1.011-.01-.595-.095-.934-.713-.797-1.372.15-.712.306-1.424.456-2.136l1.842-8.61c.135-.63.513-.973 1.137-.974 1.253 0 2.509-.033 3.758.048 3.13.202 5.832 2.872 6.21 5.995.115.942-.144 1.805-.319 2.692-.224 1.138-.477 2.27-.73 3.403-.052.229-.168.442-.255.665z" fill="#201311"/><path d="M8.756 16.791a3.667 3.667 0 013.655-3.655c2.006.01 3.662 1.677 3.643 3.669a3.648 3.648 0 01-7.296-.015l-.002.001zm23.337-.006a3.639 3.639 0 11-3.655-3.649c2-.016 3.655 1.63 3.655 3.649zM5.868 7.304h3.146c.703 0 1.185.446 1.192 1.084C10.21 9.04 9.722 9.49 9 9.492H2.675c-.718-.004-1.226-.46-1.218-1.098.007-.638.502-1.085 1.232-1.086 1.058-.006 2.118-.007 3.18-.004zm.7-2.189H4.105c-.7 0-1.186-.456-1.186-1.094 0-.639.478-1.095 1.179-1.095 1.641-.003 3.28-.003 4.918 0 .697 0 1.181.456 1.186 1.095.005.638-.482 1.094-1.178 1.094-.817.003-1.637 0-2.456 0zm.862 10.21l-.16 2.171a1.57 1.57 0 01-.194.017c-.99 0-1.98.006-2.97 0-.821-.004-1.277-.547-1.161-1.356.123-.832.123-.832.96-.832H7.43z" fill="#201311"/></svg>