<svg width="20" height="20" fill="none" xmlns="http://www.w3.org/2000/svg"><path d="M4.097 6.885a17.67 17.67 0 004.285 7.411l1.146-.624c.215-.117.426-.239.642-.35.574-.297 1.196-.13 1.523.424.526.892 1.045 1.791 1.557 2.696.334.595.127 1.283-.482 1.58-1 .488-2.007.966-3.018 1.433-.097.045-.245.024-.355-.01-.864-.272-1.613-.753-2.31-1.317-1.439-1.165-2.596-2.582-3.617-4.114C2.143 12.026 1.088 9.908.44 7.6.158 6.59-.031 5.564.004 4.51c.014-.394.091-.786.157-1.177a.42.42 0 01.162-.247c.897-.628 1.797-1.25 2.701-1.864.592-.403 1.293-.248 1.654.37.514.877 1.022 1.758 1.525 2.642.34.599.177 1.227-.41 1.59-.539.335-1.083.662-1.624.993-.01.007-.02.019-.072.067z" fill="#201311"/><path d="M8.568 13.085a17.646 17.646 0 01-3.334-5.77l1.456-.908c.143.096.298.2.453.306l4.5 3.084c.33.227.457.227.794-.005l7.24-4.963c.084-.058.171-.114.29-.192.016.089.027.179.033.269v9.156c0 .525-.354.88-.882.882-1.811.004-3.624 0-5.435.004-.132 0-.2-.055-.261-.16-.271-.48-.548-.955-.824-1.43-.658-1.135-1.843-1.467-2.99-.837l-1.04.564z" fill="#201311"/><path d="M7.213 5.583c.195-.522.171-1.033-.013-1.555h11.835l.025.043-7.026 4.817-4.82-3.305z" fill="#201311"/></svg>