<svg width="20" height="21" fill="none" xmlns="http://www.w3.org/2000/svg"><g clip-path="url(#clip0_328_231)"><path d="M12.043 20.856c-.098.004-.16.012-.223.012-1.336 0-2.668-.004-4.004.005-.187 0-.238-.054-.238-.25.004-3.266.004-6.535.004-9.8v-.282H5.43V7.054h.21c.587 0 1.173-.004 1.758.004.149 0 .188-.045.188-.196a161.16 161.16 0 010-2.748c.004-.64.101-1.264.383-1.842C8.37 1.456 9.008.927 9.812.598 10.47.328 11.16.23 11.855.217c1.133-.016 2.266-.008 3.399-.012.105 0 .191-.004.191.151-.004 1.128-.004 2.256-.004 3.384 0 .013-.004.025-.02.078h-.214c-.703 0-1.406-.004-2.11 0-.406 0-.734.172-.94.546a.82.82 0 00-.102.385c-.012.698 0 1.395-.008 2.092 0 .164.047.21.2.21.976-.009 1.952-.005 2.929-.005h.285l-.406 3.482h-3.012v10.328z" fill="#201311"/></g><defs><clipPath id="clip0_328_231"><path fill="#fff" d="M0 0h20v21H0z"/></clipPath></defs></svg>