<svg width="76" height="76" fill="none" xmlns="http://www.w3.org/2000/svg"><g clip-path="url(#clip0_328_219)" fill="#201311"><path d="M36.691.025c-2.408.08-4.802.39-7.15.926v31.407a1.3 1.3 0 01-.651 1.13L7.44 45.9c-3.312-10.658.496-25.427 12.351-33.763V27.46l-2.599 1.487V17.746a29.037 29.037 0 00-7.958 24.102l17.679-10.24V1.64C3.928 8.63-6.694 34.939 4.453 55.877l32.238-18.619V.026zM5.766 58.115a38.143 38.143 0 004.383 5.747L37.32 48.157a1.302 1.302 0 011.302 0l21.48 12.392c-7.57 8.196-22.26 12.281-35.395 6.18l13.289-7.66 2.585 1.508-9.696 5.601a29.005 29.005 0 0024.84-5.157l-17.73-10.237-25.94 14.987c17.55 16.424 45.64 12.492 58.178-7.65L37.996 39.504 5.766 58.115zm65.747-2.238a38.411 38.411 0 002.785-6.67L47.106 33.502a1.3 1.3 0 01-.648-1.126V7.566c10.88 2.464 21.759 13.147 23.05 27.584l-13.279-7.678V24.48l9.696 5.601a29.025 29.025 0 00-16.882-18.944v20.478L75 46.584C80.444 23.165 62.994.794 39.29 0v37.251l32.223 18.626z"/></g><defs><clipPath id="clip0_328_219"><path fill="#fff" d="M0 0h76v76H0z"/></clipPath></defs></svg>