<svg width="30" height="30" fill="none" xmlns="http://www.w3.org/2000/svg"><g clip-path="url(#clip0_333_704)"><path d="M15 0C8.91 0 3.954 4.955 3.954 11.045c0 1.588.325 3.105.966 4.508 2.762 6.043 8.056 12.422 9.613 14.233a.615.615 0 00.932 0c1.556-1.81 6.85-8.19 9.613-14.233.64-1.403.966-2.92.966-4.508C26.044 4.955 21.089 0 14.999 0zm0 16.782a5.744 5.744 0 01-5.738-5.738A5.744 5.744 0 0115 5.307a5.744 5.744 0 015.737 5.737A5.743 5.743 0 0115 16.782z" fill="#201311"/></g><defs><clipPath id="clip0_333_704"><path fill="#fff" d="M0 0h30v30H0z"/></clipPath></defs></svg>