<svg width="20" height="20" fill="none" xmlns="http://www.w3.org/2000/svg"><g clip-path="url(#clip0_328_227)" fill="#201311"><path d="M9.998 13.334a3.333 3.333 0 100-6.667 3.333 3.333 0 000 6.667z"/><path d="M14.166 0H5.832A5.84 5.84 0 000 5.834v8.334A5.84 5.84 0 005.834 20h8.334A5.84 5.84 0 0020 14.166V5.832A5.84 5.84 0 0014.166 0zM10 15c-2.758 0-5-2.242-5-5s2.242-5 5-5 5 2.242 5 5-2.242 5-5 5zm5.833-10a.834.834 0 110-1.667.834.834 0 010 1.667z"/></g><defs><clipPath id="clip0_328_227"><path fill="#fff" d="M0 0h20v20H0z"/></clipPath></defs></svg>