<svg width="40" height="40" fill="none" xmlns="http://www.w3.org/2000/svg"><g clip-path="url(#clip0_0_231)" fill="#201311"><path d="M19.311.013A19.927 19.927 0 0015.548.5v16.53a.683.683 0 01-.343.595L3.915 24.16c-1.742-5.61.262-13.383 6.501-17.77v8.064l-1.368.783V9.34A15.282 15.282 0 004.86 22.025l9.305-5.39V.864C2.068 4.543-3.523 18.39 2.345 29.41l16.966-9.8V.014zM3.035 30.587a20.075 20.075 0 002.307 3.025l14.3-8.266a.685.685 0 01.685 0l11.305 6.522c-3.983 4.313-11.715 6.464-18.628 3.252l6.994-4.031 1.36.794-5.103 2.948a15.265 15.265 0 0013.074-2.715l-9.331-5.388-13.653 7.888c9.237 8.644 24.02 6.575 30.62-4.026l-16.967-9.799-16.963 9.796zm34.604-1.178a20.224 20.224 0 001.465-3.51l-14.312-8.266a.684.684 0 01-.34-.593V3.983c5.726 1.296 11.452 6.919 12.13 14.517l-6.988-4.041v-1.575l5.103 2.948a15.276 15.276 0 00-8.885-9.97v10.777l13.661 7.879C42.34 12.192 33.154.418 20.68 0v19.606l16.96 9.803z"/></g><defs><clipPath id="clip0_0_231"><path fill="#fff" d="M0 0h40v40H0z"/></clipPath></defs></svg>