<svg width="20" height="20" fill="none" xmlns="http://www.w3.org/2000/svg"><g clip-path="url(#clip0_328_234)" fill="#201311"><path d="M10 .625a4.221 4.221 0 00-4.219 4.219A4.221 4.221 0 0010 9.062a4.201 4.201 0 004.219-4.218A4.221 4.221 0 0010 .625zm0 5.625a1.4 1.4 0 01-1.406-1.406A1.4 1.4 0 0110 3.437a1.4 1.4 0 011.406 1.407A1.4 1.4 0 0110 6.25zm5.188 5.656c-1.063.594-2.22 1-3.376 1.188l3.282 4.031c.375.469.469 1.125.125 1.625-.531.813-1.656.844-2.219.125l-3.031-3.719-3 3.719a1.33 1.33 0 01-1.063.5c-.406 0-.812-.188-1.093-.563-.344-.468-.313-1.25.062-1.718l3.25-4.063c-1.156-.219-2.312-.594-3.344-1.187-.656-.375-.875-1.188-.5-1.875a1.375 1.375 0 011.875-.5c2.375 1.344 5.344 1.344 7.75.031a1.34 1.34 0 011.844.531c.344.688.094 1.5-.563 1.875z"/></g><defs><clipPath id="clip0_328_234"><path fill="#fff" d="M0 0h20v20H0z"/></clipPath></defs></svg>