<svg width="26" height="30" fill="none" xmlns="http://www.w3.org/2000/svg"><path d="M15.6 7.941V0H7.8C6.364 0 5.2 1.185 5.2 2.647v10.007c1.958.705 3.378 2.57 3.463 4.783l2.498-2.544a2.568 2.568 0 013.678 0 2.681 2.681 0 010 3.744l-2.5 2.543c2.777.11 4.994 2.437 4.994 5.29 0 .62-.104 1.213-.295 1.765H23.4c1.436 0 2.6-1.185 2.6-2.647v-15h-7.8c-1.436 0-2.6-1.185-2.6-2.647zm-8.667 9.706A3.54 3.54 0 015.2 20.704c-.51.3-1.102.473-1.733.473-1.915 0-3.467-1.58-3.467-3.53 0-1.95 1.552-3.53 3.467-3.53.631 0 1.223.172 1.733.473a3.54 3.54 0 011.733 3.057zm-1.733 0c0-.975-.776-1.765-1.733-1.765-.958 0-1.734.79-1.734 1.765 0 .975.776 1.765 1.734 1.765.957 0 1.733-.79 1.733-1.765zm-1.987 10.33a.856.856 0 01-1.226 0 .894.894 0 010-1.248l10.4-10.588a.855.855 0 011.226 0 .894.894 0 010 1.248l-10.4 10.588zm5.454-1.506c0 .642.168 1.245.463 1.764A3.455 3.455 0 0012.133 30c1.284 0 2.404-.71 3.003-1.765a3.561 3.561 0 00.464-1.764c0-1.95-1.552-3.53-3.467-3.53-1.914 0-3.466 1.58-3.466 3.53zm3.466 1.764c-.957 0-1.733-.79-1.733-1.764 0-.975.776-1.765 1.733-1.765.958 0 1.734.79 1.734 1.765 0 .974-.776 1.764-1.734 1.764zm5.2-20.294v-7.5l8.234 8.383H18.2a.875.875 0 01-.867-.883z" fill="#201311"/></svg>