<svg width="35" height="35" fill="none" xmlns="http://www.w3.org/2000/svg"><g clip-path="url(#clip0_159_36)" fill="#201311"><path d="M0 17.226c.267-.575.715-.774 1.343-.762 1.55.03 3.1.01 4.649.01.875 0 1.245.364 1.257 1.24.066 4.68 3.48 8.84 8.034 9.794.043.01.09.014.152.025.005-.111.013-.21.013-.31 0-1.208-.007-2.415.008-3.623 0-.237-.08-.335-.288-.42a6.128 6.128 0 01-3.821-5.552c-.01-.721.407-1.15 1.132-1.153.616-.004 1.23-.004 1.846 0 .679.004 1.087.395 1.122 1.064.059 1.15.933 2.005 2.047 2.01 1.113.004 1.993-.857 2.052-2.005.034-.673.441-1.067 1.117-1.071a117.69 117.69 0 011.879 0c.697.005 1.136.444 1.1 1.147-.137 2.608-1.4 4.466-3.778 5.543-.25.114-.327.233-.323.499.015 1.173.006 2.346.006 3.52v.364c1.952-.41 3.63-1.28 5.035-2.643 2.047-1.981 3.095-4.408 3.17-7.253.02-.782.407-1.175 1.185-1.175h4.922c.67 0 1.132.41 1.14 1.008.01.597-.455 1.037-1.143 1.041h-.987l-.253 1.954c.331.092.668.183 1.002.282.62.182.939.705.779 1.276-.16.572-.696.86-1.321.703-.32-.08-.638-.17-.986-.265l-.76 1.823c.282.166.574.334.862.507.57.34.759.936.463 1.45-.296.514-.912.65-1.49.325-.286-.16-.568-.327-.864-.497l-1.202 1.555c.262.268.538.533.794.816a1.016 1.016 0 01.138 1.198.957.957 0 01-1.071.487 1.55 1.55 0 01-.586-.32c-.254-.208-.476-.455-.712-.688a.201.201 0 00-.048-.02l-1.542 1.184.426.747c.394.684.301 1.293-.249 1.61-.493.284-1.178.159-1.522-.569-.12-.256-.282-.492-.438-.758l-1.823.75.254.98c.165.646-.119 1.184-.706 1.345-.568.154-1.079-.164-1.264-.79a74.026 74.026 0 01-.273-.998l-1.956.257v1.03c-.008.637-.43 1.093-1.015 1.102-.585.009-1.03-.456-1.034-1.116V32.87l-1.955-.26c-.091.327-.176.654-.274.978-.19.652-.701.973-1.283.809-.581-.164-.857-.706-.69-1.355.082-.317.166-.638.253-.965l-1.823-.756c-.182.31-.352.617-.534.917-.33.547-.929.711-1.437.408-.489-.292-.63-.894-.333-1.435.164-.299.337-.592.52-.911l-1.578-1.217c-.234.243-.463.492-.705.73-.466.455-1.107.477-1.52.054-.415-.423-.384-1.044.065-1.497.238-.24.497-.46.747-.692L4.7 26.075c-.289.166-.58.338-.874.502-.579.322-1.19.182-1.485-.338-.294-.52-.099-1.106.476-1.443l.852-.5c-.25-.607-.494-1.193-.752-1.817-.306.077-.621.156-.936.237-.681.177-1.21-.091-1.38-.693-.162-.583.183-1.102.853-1.288.305-.085.611-.164.931-.25l-.251-1.95C1.35 18.468.43 18.782 0 17.772v-.546zM30.213 0c.57.22.766.663.826 1.246.247 2.4.524 4.798.79 7.2.124 1.131.245 2.263.37 3.394.018.169.044.337.07.535h1.542c.72 0 1.19.413 1.184 1.034-.006.62-.469 1.016-1.167 1.017H13.056V9.454c0-.777-.402-1.18-1.177-1.18H7.368c-.73 0-1.146.41-1.147 1.14v5.011h-.4c-1.48 0-2.963-.021-4.443.01-.638.013-1.104-.171-1.377-.762v-.547c.273-.591.741-.82 1.377-.755.243.022.489 0 .742 0 0-2.37.007-4.68-.005-6.992 0-.553.217-.911.7-1.18C4.747 3.145 6.69 2.092 8.594.979c.906-.53 1.81.035 1.731 1.01-.037.468-.006.94-.006 1.463l1.128-.625c1.144-.638 2.283-1.276 3.432-1.904.796-.435 1.574.029 1.591.937v1.585c.161-.085.262-.136.36-.19a5039 5039 0 004.178-2.32c.485-.268.911-.239 1.267.076.29.255.352.59.35.958-.003 3.326-.003 6.651 0 9.976v.411h1.98c.024-.182.05-.353.068-.521.125-1.131.249-2.262.372-3.394.264-2.398.541-4.795.788-7.195.06-.584.256-1.025.826-1.246h3.554zM16.815 10.32c.227 0 .456.007.681 0a1.022 1.022 0 10.014-2.044 23.772 23.772 0 00-1.396 0 1.022 1.022 0 00-.014 2.043c.24.01.479.002.715.002z"/><path d="M8.296 10.336h2.691v4.06H8.296v-4.06z"/></g><defs><clipPath id="clip0_159_36"><path fill="#fff" d="M0 0h35v35H0z"/></clipPath></defs></svg>