<svg width="30" height="30" fill="none" xmlns="http://www.w3.org/2000/svg"><path d="M8.303 30c-.462-.131-.905-.297-1.246-.66-.44-.463-.63-1.02-.629-1.651V2.383c0-.96.354-1.72 1.243-2.142A2.465 2.465 0 018.684.014c4.16-.016 8.318-.018 12.477-.008 1.35 0 2.256.958 2.256 2.345v20.153c0 1.612-.032 3.224.011 4.832.034 1.2-.366 2.277-1.884 2.663L8.303 30zm13.455-6.125V4.136a.421.421 0 00-.42-.421H8.502a.421.421 0 00-.42.421v19.739a.421.421 0 00.42.421h12.834a.421.421 0 00.421-.421zm-4.567 2.169h-4.534a.373.373 0 00-.374.372v.856a.374.374 0 00.374.374h4.535a.373.373 0 00.372-.374v-.855a.373.373 0 00-.373-.373zM17.53 1.6h-5.209a.306.306 0 000 .61h5.209a.306.306 0 100-.61zm2.267.88a.549.549 0 00.548-.558.561.561 0 00-.543-.54.55.55 0 00-.396.939.539.539 0 00.391.155v.003z" fill="#201311"/></svg>