<svg width="20" height="20" fill="none" xmlns="http://www.w3.org/2000/svg"><g clip-path="url(#clip0_328_273)"><path d="M9.375 0h1.25c.07.012.14.027.208.036.342.045.687.07 1.025.136C14.36.668 16.409 1.92 17.95 3.95c1.728 2.275 2.356 4.853 1.91 7.672-.355 2.248-1.387 4.161-3.064 5.698-2.309 2.115-5.044 2.972-8.147 2.583-1.995-.25-3.754-1.071-5.26-2.408-1.735-1.543-2.821-3.46-3.234-5.751-.066-.37-.104-.745-.156-1.118v-1.25c.03-.245.055-.49.09-.733.313-2.18 1.23-4.068 2.774-5.64C4.362 1.48 6.167.524 8.276.156 8.641.09 9.01.051 9.376 0zm1.336 6.9V4.382a1.09 1.09 0 00-.033-.307.709.709 0 00-1.385.22c-.003 1.9-.003 3.8 0 5.699 0 .255.115.446.309.6l3.489 2.789a.875.875 0 00.365.17.682.682 0 00.764-.403.698.698 0 00-.216-.858c-1.048-.844-2.1-1.685-3.153-2.523a.335.335 0 01-.143-.294c.006-.86.003-1.718.003-2.575z" fill="#201311"/></g><defs><clipPath id="clip0_328_273"><path fill="#fff" d="M0 0h20v19.994H0z"/></clipPath></defs></svg>