<svg width="20" height="20" fill="none" xmlns="http://www.w3.org/2000/svg"><mask id="mask0_328_239" style="mask-type:luminance" maskUnits="userSpaceOnUse" x="0" y="0" width="20" height="20"><path d="M20 0H0v20h20V0z" fill="#fff"/></mask><g mask="url(#mask0_328_239)"><path d="M.675 3.973H3.04c.3 0 .533.2.633.466.3.866.965 2.764 1.731 4.063 1.033 1.698 1.699 2.331 2.132 2.264.433-.1.3-1.232.3-2.13 0-.9.1-2.432-.334-3.131l-.666-.966a.333.333 0 01.267-.533h3.796c.367 0 .666.3.666.666v4.83s.167.865 1.1-.034c.932-.9 1.93-2.564 2.763-4.263l.333-.8a.66.66 0 01.6-.399h2.464c.466 0 .8.466.633.9l-.267.699s-.899 1.798-1.831 3.064c-.933 1.298-1.133 1.598-1 1.931.134.333 2.532 2.564 3.131 3.63.167.3.3.566.433.8.233.432-.1.998-.6.998h-2.797a.645.645 0 01-.566-.333l-.266-.433s-1.699-1.998-2.731-2.63c-1.066-.6-1.033.266-1.033.266v1.765c0 .733-.599 1.332-1.332 1.332h-.666s-3.663 0-6.593-4.363C1.042 8.236.276 6.038.01 4.772c-.067-.4.232-.8.665-.8z" fill="#201311"/></g></svg>